<svg width="16" height="16" viewBox="0 0 16 16" fill="none" xmlns="http://www.w3.org/2000/svg">
<path d="M12.8538 7.35414C12.8073 7.40063 12.7522 7.43751 12.6915 7.46267C12.6308 7.48784 12.5657 7.50079 12.5 7.50079C12.4343 7.50079 12.3693 7.48784 12.3086 7.46267C12.2479 7.43751 12.1927 7.40063 12.1463 7.35414L8.50003 3.70727V13.5004C8.50003 13.633 8.44736 13.7602 8.35359 13.8539C8.25982 13.9477 8.13264 14.0004 8.00003 14.0004C7.86743 14.0004 7.74025 13.9477 7.64648 13.8539C7.55271 13.7602 7.50003 13.633 7.50003 13.5004V3.70727L3.85378 7.35414C3.75996 7.44796 3.63272 7.50067 3.50003 7.50067C3.36735 7.50067 3.2401 7.44796 3.14628 7.35414C3.05246 7.26032 2.99976 7.13308 2.99976 7.00039C2.99976 6.86771 3.05246 6.74046 3.14628 6.64664L7.64628 2.14664C7.69272 2.10016 7.74786 2.06328 7.80856 2.03811C7.86926 2.01295 7.93433 2 8.00003 2C8.06574 2 8.13081 2.01295 8.1915 2.03811C8.2522 2.06328 8.30735 2.10016 8.35378 2.14664L12.8538 6.64664C12.9003 6.69308 12.9372 6.74822 12.9623 6.80892C12.9875 6.86962 13.0004 6.93469 13.0004 7.00039C13.0004 7.0661 12.9875 7.13116 12.9623 7.19186C12.9372 7.25256 12.9003 7.30771 12.8538 7.35414Z" fill="#00004E"/>
</svg>
